<svg aria-hidden="true" style="position:absolute;width:0;height:0" xmlns="http://www.w3.org/2000/svg" overflow="hidden"><defs><symbol id="icon-fa-twitter" viewBox="0 0 38 32"><path fill="var(--color1, #c5a15b)" d="M34.336 5.792c1.696-.96 2.848-2.368 3.456-4.128-1.568.864-3.2 1.472-4.96 1.792-1.568-1.568-3.456-2.368-5.728-2.368-2.144 0-4 .736-5.536 2.208-1.504 1.472-2.272 3.232-2.272 5.312a8.4 8.4 0 00.192 1.728c-3.2-.16-6.208-.928-8.992-2.336A21.766 21.766 0 013.36 2.464a7.27 7.27 0 00-1.056 3.808c0 1.28.32 2.464.928 3.552a7.64 7.64 0 002.56 2.688c-1.248-.064-2.432-.352-3.552-.96v.096c0 1.824.608 3.392 1.792 4.768s2.688 2.24 4.48 2.592c-.672.192-1.344.256-2.048.256-.448 0-.928-.032-1.472-.096.48 1.472 1.408 2.72 2.752 3.68 1.344.992 2.848 1.472 4.544 1.504-2.816 2.144-6.08 3.2-9.696 3.2-.704 0-1.312-.032-1.888-.096 3.616 2.272 7.616 3.392 12 3.392 2.784 0 5.376-.416 7.808-1.28 2.464-.832 4.544-1.984 6.24-3.392a22.483 22.483 0 004.48-4.896c1.248-1.824 2.176-3.744 2.784-5.76.64-2.016.928-4.032.928-6.048 0-.416 0-.736-.032-.96a16.158 16.158 0 003.936-3.872 16.729 16.729 0 01-4.512 1.152z"/></symbol><symbol id="icon-fa-linkedin" viewBox="0 0 35 32"><path fill="var(--color1, #c5a15b)" d="M2.764 12.073V32h6.982V12.073H2.764zm6.341-8.611c-.698-.64-1.658-.96-2.822-.96s-2.095.32-2.822.96c-.727.64-1.105 1.484-1.105 2.473 0 .96.349 1.775 1.076 2.444.698.669 1.629.989 2.764.989h.058c1.164 0 2.124-.32 2.851-.989s1.076-1.484 1.076-2.444c-.029-.989-.378-1.833-1.076-2.473zm23.506 10.443c-1.455-1.542-3.404-2.298-5.818-2.298-.873 0-1.687.116-2.415.32s-1.338.495-1.833.873c-.495.378-.902.727-1.193 1.047s-.582.698-.873 1.135h.058v-2.909h-6.953l.029.96v5.964c0 3.317 0 7.651-.029 13.004h6.953V20.888c0-.698.058-1.222.233-1.629a4.063 4.063 0 011.338-1.716c.582-.465 1.338-.698 2.211-.698 1.222 0 2.124.407 2.676 1.193.582.785.873 1.891.873 3.316v10.647h6.953V20.568c0-2.938-.756-5.149-2.211-6.662z"/></symbol><symbol id="icon-fa-dribbble" viewBox="0 0 35 32"><path fill="var(--color1, #c5a15b)" d="M18.705 28.742c-3.316 0-6.255-1.018-8.844-3.025l.32.233c.495-1.047 1.222-2.036 2.182-2.967.96-.96 1.891-1.745 2.764-2.327.902-.582 1.862-1.105 2.909-1.629 1.018-.524 1.804 10.473 2.182 10.327.407-.145.611-11.578.844-11.636l.058-.029h.029c1.367 3.433 2.356 6.778 2.967 10.007a14.443 14.443 0 01-5.411 1.047zm1.222-13.149a1.676 1.676 0 01-.291.058l-.756.262c-.553.204-1.251.524-2.124.96-.844.465-1.775.989-2.735 1.629-.989.64-1.978 1.484-3.025 2.502a17.679 17.679 0 00-2.618 3.345 13.816 13.816 0 01-2.618-4.044 12.523 12.523 0 01-.931-4.742c0-.204.029-.349.029-.436 5.091 0 9.833-.611 14.225-1.862a31.25 31.25 0 011.105 2.24.676.676 0 00-.262.087zM5.149 12.829c.436-2.007 1.338-3.84 2.705-5.469a13.794 13.794 0 014.916-3.724 68.887 68.887 0 015.178 7.593c-4.305 1.076-8.553 1.6-12.8 1.6zm25.222 9.862a13.512 13.512 0 01-3.927 3.782c-.582-3.084-1.484-6.196-2.705-9.425 2.822-.407 5.702-.204 8.64.582-.291 1.833-.989 3.52-2.007 5.062zM15.331 2.764h.058-.058zm12.247 3.258c-.116.145-.378.407-.785.815-.436.407-.902.785-1.396 1.135-.495.378-1.164.785-2.036 1.251-.844.465-1.775.844-2.735 1.193-1.629-2.822-3.345-5.382-5.207-7.651a14.304 14.304 0 013.287-.407c3.491 0 6.545 1.105 9.135 3.316a5.036 5.036 0 01-.262.349zm4.771 9.338a9.668 9.668 0 00-.524-.087 13.05 13.05 0 01-.785-.116c-.291-.029-.64-.087-1.018-.116a12.783 12.783 0 00-1.193-.116c-.407-.029-.873-.058-1.338-.087-.495-.029-.96-.029-1.455-.029s-1.018 0-1.571.029c-.524.029-1.047.087-1.571.145-.029-.058-.087-.175-.145-.32s-.116-.262-.145-.349c-.262-.582-.582-1.193-.931-1.92.989-.378 1.891-.815 2.793-1.28.873-.495 1.571-.931 2.095-1.309s1.047-.785 1.513-1.222c.465-.436.785-.727.902-.902.145-.175.291-.32.407-.495h.029c2.065 2.385 3.113 5.12 3.142 8.233l-.204-.058zM26.851 2.182C24.349.815 21.644.117 18.706.117s-5.673.698-8.145 2.065C8.059 3.578 6.11 5.44 4.656 7.797c-1.455 2.385-2.182 4.945-2.182 7.767 0 2.793.727 5.382 2.182 7.738s3.404 4.247 5.905 5.615c2.473 1.367 5.207 2.065 8.145 2.065s5.644-.698 8.145-2.065c2.473-1.367 4.451-3.258 5.905-5.615s2.153-4.945 2.153-7.738c0-2.822-.698-5.382-2.153-7.767-1.455-2.356-3.433-4.218-5.905-5.615z"/></symbol><symbol id="icon-fa-behance" viewBox="0 0 57 32"><path fill="var(--color1, #c5a15b)" d="M49.244 4.871H36.053V1.813h13.191v3.058zm-1.351 12.196H37.369c.107-1.458.64-2.631 1.6-3.484s2.24-1.28 3.769-1.28c3.129 0 4.871 1.6 5.156 4.764zm-9.031 8.106c-.996-.996-1.493-2.382-1.493-4.196h16.996c.036-.498.036-.889.036-1.173 0-2.24-.427-4.267-1.28-6.08a10.719 10.719 0 00-3.947-4.409c-1.778-1.102-3.84-1.671-6.222-1.671-3.556 0-6.436 1.138-8.676 3.378-2.276 2.24-3.378 5.084-3.378 8.498 0 3.52 1.067 6.364 3.271 8.498 2.169 2.169 5.084 3.271 8.782 3.271 5.618 0 9.316-2.524 11.022-7.538h-5.689c-.32.889-.96 1.6-1.991 2.133-.996.498-2.062.782-3.129.782-1.884 0-3.307-.498-4.302-1.493zM8.676 16.924h7.822c3.413 0 5.12 1.458 5.12 4.409 0 2.738-1.742 4.089-5.298 4.089H8.676v-8.498zm0-11.911h6.72c3.271 0 4.907 1.173 4.907 3.556 0 1.244-.391 2.169-1.173 2.773s-1.849.889-3.2.889H8.677V5.013zM1.529 30.684h15.787c1.209 0 2.347-.107 3.449-.32s2.133-.569 3.129-1.031c.996-.462 1.813-1.067 2.56-1.742.711-.676 1.28-1.529 1.707-2.524a9.36 9.36 0 00.604-3.378c0-1.956-.498-3.627-1.493-5.013-.996-1.351-2.489-2.276-4.444-2.809 2.987-1.351 4.444-3.484 4.444-6.471 0-1.493-.249-2.738-.818-3.769-.533-1.031-1.316-1.813-2.311-2.382A12.365 12.365 0 0020.872.072c-1.173-.213-2.489-.32-3.982-.32H1.53v30.933z"/></symbol><symbol id="icon-fa-facebook" viewBox="0 0 19 32"><path fill="var(--color1, #c5a15b)" d="M12.293 0c-2.24 0-4.027.613-5.36 1.867-1.36 1.28-2.027 3.04-2.027 5.333v4H-.027v5.467h4.933V30.64h5.92V16.667h4.933l.747-5.467h-5.68V7.733c0-.907.213-1.547.587-2 .4-.453 1.147-.667 2.24-.667h3.04V.213C15.653.053 14.186 0 12.293 0z"/></symbol><symbol id="icon-menu" viewBox="0 0 32 32"><path fill="var(--color2, #fff)" opacity=".078" d="M16 5.333c5.893 0 10.667 4.773 10.667 10.667S21.894 26.667 16 26.667c-5.893 0-10.667-4.773-10.667-10.667S10.106 5.333 16 5.333z"/><path fill="var(--color3, #c6a15b)" d="M9.099 12.267h13.269c.315 0 .565.251.565.565v.288a.566.566 0 01-.565.565H9.099a.565.565 0 01-.565-.565v-.288c0-.315.251-.565.565-.565zM13.899 15.552h8.469c.315 0 .565.251.565.565v.283a.562.562 0 01-.565.565h-8.469a.562.562 0 01-.565-.565v-.283c0-.315.251-.565.565-.565zM11.029 18.848h11.339c.315 0 .565.256.565.565v.288a.562.562 0 01-.565.565H11.029a.566.566 0 01-.565-.565v-.288c0-.309.256-.565.565-.565z"/></symbol></defs></svg>